<svg width="20" height="20" viewBox="0 0 20 20" fill="none" xmlns="http://www.w3.org/2000/svg">
<path fill-rule="evenodd" clip-rule="evenodd" d="M5.625 13.05H13.875C16.1532 13.05 18 14.8968 18 17.175C18 17.6306 17.6306 18 17.175 18C16.7519 18 16.4032 17.6815 16.3555 17.2712L16.3458 17.0296C16.2733 15.7785 15.2715 14.7767 14.0204 14.7042L13.875 14.7H5.625C4.2581 14.7 3.15 15.8081 3.15 17.175C3.15 17.6306 2.78063 18 2.325 18C1.86937 18 1.5 17.6306 1.5 17.175C1.5 14.9568 3.2509 13.1475 5.44607 13.0538L5.625 13.05H13.875H5.625ZM9.75 1.5C12.4838 1.5 14.7 3.71619 14.7 6.45C14.7 9.18381 12.4838 11.4 9.75 11.4C7.01619 11.4 4.8 9.18381 4.8 6.45C4.8 3.71619 7.01619 1.5 9.75 1.5ZM9.75 3.15C7.92746 3.15 6.45 4.62746 6.45 6.45C6.45 8.27254 7.92746 9.75 9.75 9.75C11.5725 9.75 13.05 8.27254 13.05 6.45C13.05 4.62746 11.5725 3.15 9.75 3.15Z" fill="#87EB19"/>
</svg>
