<svg width="46" height="40" viewBox="0 0 46 40" fill="none" xmlns="http://www.w3.org/2000/svg">
<path d="M34.6861 0C38.1597 0 40.9385 1.23457 43.0227 3.7037C45.0076 6.27161 46 9.58025 46 13.6296C46 19.1605 44.5113 24.1482 41.534 28.5926C38.4574 33.1358 33.7929 36.9383 27.5405 40L25.9029 37.6296C28.8803 35.8519 31.6095 33.3333 34.0906 30.0741C36.4725 26.9136 37.6634 23.7037 37.6634 20.4444C37.6634 19.5556 37.4153 18.8148 36.9191 18.2222C36.4229 17.7284 35.6785 17.4815 34.6861 17.4815C32.205 17.4815 30.1208 16.5926 28.4337 14.8148C26.6472 13.1358 25.754 11.0617 25.754 8.59259C25.754 6.12346 26.6472 4.04938 28.4337 2.37037C30.1208 0.790123 32.205 0 34.6861 0ZM8.93204 0C12.4056 0 15.1845 1.23457 17.2686 3.7037C19.2535 6.27161 20.246 9.58025 20.246 13.6296C20.246 19.1605 18.7573 24.1482 15.7799 28.5926C12.7033 33.1358 8.03883 36.9383 1.78641 40L0.148869 37.6296C3.12621 35.8519 5.85545 33.3333 8.33657 30.0741C10.7184 26.9136 11.9094 23.7037 11.9094 20.4444C11.9094 19.5556 11.6613 18.8148 11.165 18.2222C10.6688 17.7284 9.92449 17.4815 8.93204 17.4815C6.45092 17.4815 4.36678 16.5926 2.67961 14.8148C0.893204 13.1358 0 11.0617 0 8.59259C0 6.12346 0.893204 4.04938 2.67961 2.37037C4.36678 0.790123 6.45092 0 8.93204 0Z" fill="#5D5D5D"/>
</svg>
