<svg xmlns="http://www.w3.org/2000/svg" xmlns:xlink="http://www.w3.org/1999/xlink" width="0" height="0" style="position:absolute">
	
		<symbol id="1" viewBox="0 0 19 39">
			<path d="M17.028 2.264h1.5v-1.5h-1.5v1.5zm0 34.736v1.5h1.5V37h-1.5zm-6.032 0h-1.5v1.5h1.5V37zm.104-26.78l1.497.094.203-3.244-2.6 1.95.9 1.2zm-1.196.728l-.706-1.324-.022.012-.022.013.75 1.299zm-4.68 2.704l-1.316.72.736 1.347 1.33-.768-.75-1.299zM2.78 9.18l-.803-1.267-1.188.752.675 1.234L2.78 9.18zM13.7 2.264v-1.5h-.435l-.368.233.803 1.267zm1.828 0V37h3V2.264h-3zm1.5 33.236h-6.032v3h6.032v-3zM12.496 37V12.612h-3V37h3zm0-24.388c0-.434.032-1.191.101-2.298l-2.994-.188c-.07 1.112-.107 1.95-.107 2.486h3zM10.2 9.02c-.188.141-.51.342-1.002.604l1.412 2.647c.548-.292 1.023-.576 1.39-.851l-1.8-2.4zm-1.046.63l-4.68 2.703 1.5 2.598 4.68-2.704-1.5-2.598zM6.54 12.932L4.096 8.46 1.464 9.899l2.444 4.472 2.632-1.438zm-2.957-2.486l10.92-6.916L12.897.997 1.977 7.913l1.606 2.534zM13.7 3.764h3.328v-3H13.7v3z"></path>
		</symbol>
	
		<symbol id="2" viewBox="0 0 27 39">
			<path d="M24.556 31.748h1.5v-1.5h-1.5v1.5zm0 5.252v1.5h1.5V37h-1.5zM2.612 37h-1.5v1.5h1.5V37zm0-2.288l-1.203-.896-.297.399v.497h1.5zM14.78 18.384l1.203.896.009-.012.009-.012-1.221-.872zm2.236-3.588l1.352.65.004-.009.005-.01-1.361-.631zm-.52-5.98l1.083-1.038-1.083 1.038zm-9.516 2.6l-.915 1.189 1.22.938.907-1.243-1.212-.884zm-4.056-3.12l-1.251-.827-.77 1.165 1.106.85.915-1.188zm16.12-5.044l-.718 1.317.012.007.706-1.324zm3.588 3.432l-1.302.744.004.007.003.007 1.295-.758zm.26 9.36l1.367.618-1.367-.618zm-3.64 5.668l-1.194-.909-.004.007-.005.006 1.203.896zm-5.616 7.54l-1.203-.896-.006.008-.006.008 1.215.88zm-2.08 2.548l-1.087-1.033L7.91 33.46l3.711-.161-.065-1.499zm11.5-.052V37h3v-5.252h-3zm1.5 3.752H2.612v3h21.944v-3zM4.112 37v-2.288h-3V37h3zm-.297-1.392L15.983 19.28l-2.406-1.792L1.41 33.816l2.406 1.792zM16 19.256c1.06-1.484 1.861-2.76 2.366-3.81l-2.703-1.3c-.396.822-1.084 1.938-2.105 3.366l2.442 1.744zm2.375-3.828c.522-1.123.816-2.258.816-3.388h-3c0 .604-.157 1.306-.537 2.124l2.722 1.264zm.816-3.388c0-1.644-.51-3.11-1.613-4.262l-2.166 2.076c.491.512.779 1.196.779 2.186h3zm-1.613-4.262c-1.13-1.178-2.623-1.71-4.307-1.71v3c1.02 0 1.676.3 2.141.786l2.166-2.076zm-4.307-1.71c-2.964 0-5.461 1.665-7.504 4.464L8.192 12.3c1.701-2.332 3.4-3.232 5.08-3.232v-3zm-5.377 4.16l-4.056-3.12-1.83 2.377 4.056 3.12 1.83-2.378zm-3.72-1.105c2.54-3.84 5.705-5.619 9.565-5.619v-3C8.725.504 4.68 2.92 1.673 7.469l2.502 1.654zm9.565-5.619c1.8 0 3.313.37 4.586 1.065l1.436-2.634C17.984.965 15.962.504 13.74.504v3zm4.598 1.072c1.325.706 2.308 1.655 2.992 2.852l2.604-1.488c-.98-1.715-2.389-3.054-4.184-4.012l-1.412 2.648zm3 2.866c.69 1.179 1.042 2.492 1.042 3.974h3c0-1.985-.48-3.826-1.453-5.49l-2.59 1.516zm1.042 3.974c0 1.42-.286 2.752-.855 4.01l2.734 1.236a12.6 12.6 0 0 0 1.121-5.246h-3zm-.855 4.01c-.588 1.3-1.72 3.084-3.467 5.377l2.388 1.817c1.79-2.351 3.084-4.347 3.813-5.958l-2.734-1.236zm-3.476 5.39l-5.616 7.54 2.406 1.792 5.616-7.54-2.406-1.792zm-5.628 7.556c-.7.967-1.35 1.762-1.952 2.395l2.175 2.066c.715-.753 1.45-1.657 2.207-2.701l-2.43-1.76zm-.8 4.927c.765-.034 1.883-.051 3.367-.051v-3c-1.497 0-2.667.017-3.497.053l.13 2.998zm3.367-.051h9.568v-3h-9.568v3z"></path>
		</symbol>
	
		<symbol id="3" viewBox="0 0 29 40">
			<path d="M7.448 36.272l-.651 1.351.014.007.014.007.623-1.365zm-5.096-3.848l-1.084-1.037-.959 1.002.925 1.034 1.118-.999zm3.484-3.64l1.085-1.036-1.084-1.135-1.085 1.134 1.084 1.037zm12.688 1.976l.925 1.18.01-.007.01-.008-.945-1.165zm-.104-7.904l-.786 1.277.012.008.012.007.762-1.292zm-9.36-1.248h-1.5v1.5h1.5v-1.5zm0-4.992v-1.5h-1.5v1.5h1.5zm8.32-1.404l1.004 1.115.001-.002-1.005-1.113zm.104-6.656l-.999 1.119.021.019.022.018.956-1.156zM9.84 8.088l-.654-1.35.654 1.35zM6.564 10.48l-1.052 1.069 1.06 1.044 1.053-1.052-1.061-1.061zm-3.38-3.328L2.059 6.16l-.94 1.064 1.013.997 1.052-1.069zm5.044-3.9L7.599 1.89l.629 1.362zM19.824 3.2l-.66 1.347.012.006.012.006.636-1.359zm3.796 3.224l-1.258.817.005.008.005.007 1.248-.832zm.052 8.996l-1.272-.795-.007.012-.007.011 1.286.772zm-3.536 3.276l-.695-1.33-3.087 1.614 3.294 1.134.488-1.418zm4.784 3.432l-1.235.851 1.235-.851zm0 10.556l-1.235-.851-.004.006 1.239.845zm-4.472 3.64l.611 1.37.01-.005.01-.005-.631-1.36zm-6.708-.2c-2.009 0-3.893-.407-5.67-1.217l-1.245 2.73a16.483 16.483 0 0 0 6.915 1.487v-3zM8.1 34.921a14.729 14.729 0 0 1-4.63-3.497l-2.236 2a17.729 17.729 0 0 0 5.563 4.2l1.302-2.703zm-4.664-1.46l3.484-3.64-2.168-2.074-3.484 3.64 2.168 2.074zm1.315-3.64c2.462 2.576 5.37 3.947 8.677 3.947v-3c-2.378 0-4.531-.951-6.507-3.02L4.75 29.82zm8.677 3.947c2.35 0 4.405-.56 6.021-1.827l-1.85-2.362c-.95.744-2.291 1.189-4.171 1.189v3zm6.04-1.843c1.62-1.313 2.48-3.052 2.48-5.117h-3c0 1.124-.423 2.02-1.369 2.787l1.89 2.33zm2.48-5.117c0-2.26-.871-4.127-2.766-5.244l-1.524 2.584c.81.477 1.29 1.246 1.29 2.66h3zm-2.742-5.23c-1.636-1.006-3.569-1.47-5.726-1.47v3c1.726 0 3.086.368 4.154 1.026l1.572-2.556zm-5.726-1.47H9.06v3h4.42v-3zm-2.92 1.5v-4.992h-3v4.992h3zm-1.5-3.492h3.744v-3H9.06v3zm3.744 0c2.221 0 4.164-.516 5.58-1.79l-2.007-2.229c-.665.599-1.773 1.019-3.573 1.019v3zm5.581-1.79c1.365-1.233 2.107-2.789 2.107-4.598h-3c0 .895-.332 1.662-1.117 2.37l2.01 2.227zm2.107-4.598c0-1.739-.709-3.216-2.052-4.328l-1.912 2.312c.668.552.964 1.19.964 2.016h3zm-2.009-4.29c-1.304-1.165-2.97-1.682-4.847-1.682v3c1.313 0 2.212.35 2.849.919l1.998-2.238zm-4.847-1.682c-1.592 0-3.084.32-4.45.982l1.308 2.7c.922-.447 1.961-.682 3.142-.682v-3zm-4.45.982C7.869 7.376 6.643 8.28 5.503 9.42l2.122 2.122c.94-.94 1.898-1.632 2.87-2.103l-1.31-2.7zm-1.57 2.673l-3.38-3.328-2.104 2.138 3.38 3.328L7.616 9.41zM4.31 8.144c1.447-1.64 2.966-2.8 4.548-3.53L7.599 1.89c-2.024.934-3.867 2.374-5.54 4.27l2.25 1.984zm4.548-3.53c1.583-.73 3.376-1.11 5.403-1.11v-3c-2.41 0-4.639.453-6.66 1.386l1.257 2.724zm5.403-1.11c1.885 0 3.509.36 4.905 1.043l1.318-2.694C18.62.94 16.535.504 14.26.504v3zm4.928 1.055c1.399.654 2.439 1.551 3.174 2.682l2.516-1.634C23.81 3.964 22.32 2.712 20.46 1.84L19.188 4.56zm3.184 2.697c.73 1.094 1.1 2.327 1.1 3.744h3c0-1.98-.53-3.798-1.604-5.408l-2.496 1.664zm1.1 3.744c0 1.265-.347 2.465-1.072 3.625l2.544 1.59c1.008-1.613 1.528-3.36 1.528-5.215h-3zm-1.086 3.648c-.681 1.135-1.648 2.04-2.945 2.719l1.39 2.658c1.753-.916 3.144-2.194 4.127-3.833l-2.572-1.544zm-2.738 5.466c1.868.643 3.175 1.614 4.037 2.865l2.47-1.702c-1.288-1.87-3.17-3.186-5.53-4l-.977 2.837zm4.037 2.865c.898 1.303 1.347 2.756 1.347 4.401h3c0-2.237-.625-4.286-1.877-6.103l-2.47 1.702zm1.347 4.401c0 1.686-.453 3.155-1.347 4.453l2.47 1.702c1.255-1.821 1.877-3.889 1.877-6.155h-3zm-1.351 4.459c-.865 1.268-2.129 2.319-3.865 3.125l1.264 2.72c2.147-.996 3.864-2.373 5.08-4.155l-2.48-1.69zm-3.845 3.115c-1.715.766-3.736 1.17-6.096 1.17v3c2.702 0 5.153-.463 7.32-1.43l-1.223-2.74z"></path>
		</symbol>
	
		<symbol id="4" viewBox="0 0 30 39">
			<path d="M27.624 25.56h1.5v-1.5h-1.5v1.5zm0 4.94V32h1.5v-1.5h-1.5zm-3.9 0V29h-1.5v1.5h1.5zm0 6.5v1.5h1.5V37h-1.5zm-5.616 0h-1.5v1.5h1.5V37zm0-6.5h1.5V29h-1.5v1.5zm-16.276 0h-1.5V32h1.5v-1.5zm0-3.172l-1.207-.891-.293.397v.494h1.5zM20.344 2.264v-1.5h-.757l-.45.609 1.207.891zm3.38 0h1.5v-1.5h-1.5v1.5zm0 23.296h-1.5v1.5h1.5v-1.5zM18.42 12.612l1.493.15-2.773-.932 1.28.782zm-2.184 3.172l-1.171-.937-.021.026-.02.028 1.212.883zm-5.304 7.28l1.185.92.014-.019.013-.018-1.212-.883zm-1.976 2.548l-1.185-.92-1.984 2.56 3.234-.141-.065-1.499zm9.308-.052v1.5h1.5v-1.5h-1.5zm7.86 0v4.94h3v-4.94h-3zm1.5 3.44h-3.9v3h3.9v-3zm-5.4 1.5V37h3v-6.5h-3zm1.5 5h-5.616v3h5.616v-3zM19.608 37v-6.5h-3V37h3zm-1.5-8H1.832v3h16.276v-3zM3.332 30.5v-3.172h-3V30.5h3zm-.293-2.28L21.55 3.154l-2.414-1.782L.625 26.437l2.414 1.782zM20.344 3.763h3.38v-3h-3.38v3zm1.88-1.5V25.56h3V2.264h-3zm1.5 24.796h3.9v-3h-3.9v3zm-3.96-10.132c0-1.819.052-3.2.149-4.167l-2.986-.298c-.11 1.113-.163 2.609-.163 4.465h3zM17.14 11.83c-.74 1.21-1.431 2.212-2.075 3.017l2.342 1.874c.743-.928 1.507-2.04 2.293-3.327l-2.56-1.564zm-2.116 3.07L9.72 22.18l2.424 1.767 5.304-7.28-2.424-1.766zm-5.277 7.245L7.77 24.693l2.37 1.838 1.976-2.548-2.37-1.838zM9.02 27.11c.764-.034 1.916-.051 3.471-.051v-3c-1.565 0-2.77.017-3.601.053l.13 2.998zm3.471-.051h5.772v-3h-5.772v3zm7.272-1.5v-8.632h-3v8.632h3z"></path>
		</symbol>
	
		<symbol id="arr" viewBox="0 0 9 13">
			<path d="M8.786 6.144L3.72.14C3.553-.051 3.16.106 3 .305A.569.569 0 0 0 3 1l4.5 5.5L3 12a.568.568 0 0 0 0 .708c.165.195.556.341.72.146L8.787 6.85a.568.568 0 0 0 0-.707z"></path>
		</symbol>
	
		<symbol id="arr-left" viewBox="0 0 28 20">
			<path fill-rule="evenodd" clip-rule="evenodd" d="M8.752 3.827l-.069-.08a.812.812 0 0 0-1.089-.07l-.077.07-5.775 5.906-.035.037-.045.058-.06.094-.043.095-.03.089-.023.124-.006.1.002.063.015.106.024.094.036.094.043.082.061.089.06.069 5.776 5.906c.322.33.844.33 1.166 0a.858.858 0 0 0 .069-1.114l-.069-.08-4.365-4.465h22.857A.835.835 0 0 0 28 10.25a.835.835 0 0 0-.825-.844H4.317L8.683 4.94a.858.858 0 0 0 .069-1.113z" opacity=".6"></path>
		</symbol>
	
		<symbol id="arr-right" viewBox="0 0 29 20">
			<path fill-rule="evenodd" clip-rule="evenodd" d="M19.748 3.827l.069-.08a.812.812 0 0 1 1.089-.07l.077.07 5.775 5.906.035.037.045.058.06.094.043.095.03.089.023.124.006.1-.002.063-.015.106-.024.094-.036.094-.043.082-.061.089-.06.069-5.776 5.906a.812.812 0 0 1-1.166 0 .858.858 0 0 1-.069-1.114l.069-.08 4.365-4.465H1.325A.834.834 0 0 1 .5 10.25c0-.466.37-.844.825-.844h22.858L19.817 4.94a.858.858 0 0 1-.069-1.113z" opacity=".6"></path>
		</symbol>
	
		<symbol id="close" viewBox="0 0 40 40">
			<path fill-rule="evenodd" clip-rule="evenodd" d="M21.823 19.5l8.695-8.695a1.64 1.64 0 0 0 0-2.323 1.64 1.64 0 0 0-2.323 0L19.5 17.177l-8.695-8.695a1.641 1.641 0 0 0-2.323 0 1.641 1.641 0 0 0 0 2.323l8.695 8.695-8.695 8.696A1.641 1.641 0 0 0 9.643 31c.42 0 .841-.161 1.162-.481l8.695-8.696 8.695 8.696a1.639 1.639 0 0 0 2.323 0 1.64 1.64 0 0 0 0-2.323L21.823 19.5z"></path>
		</symbol>
	
		<symbol id="comment" viewBox="0 0 20 20">
			<path fill-rule="evenodd" clip-rule="evenodd" d="M15.525 1.5a2.478 2.478 0 0 1 2.47 2.33l.005.145v8.25a2.478 2.478 0 0 1-2.33 2.47l-.145.005h-2.888l-2.227 2.97a.824.824 0 0 1-1.258.074l-.062-.074-2.228-2.97H3.975a2.478 2.478 0 0 1-2.47-2.33l-.005-.145v-8.25a2.478 2.478 0 0 1 2.33-2.47l.145-.005h11.55zm0 1.65H3.975a.827.827 0 0 0-.82.729l-.005.096v8.25c0 .422.32.772.729.82l.096.005h3.3c.227 0 .443.093.598.256l.062.074L9.75 15.8l1.815-2.42a.824.824 0 0 1 .563-.324l.097-.006h3.3c.422 0 .772-.32.82-.729l.005-.096v-8.25a.827.827 0 0 0-.729-.82l-.096-.005zm-1.65 5.775a.825.825 0 0 1 .096 1.644l-.096.006h-8.25a.825.825 0 0 1-.096-1.644l.096-.006h8.25zm0-3.3a.825.825 0 0 1 .096 1.644l-.096.006h-8.25a.825.825 0 0 1-.096-1.644l.096-.006h8.25z"></path>
		</symbol>
	
		<symbol id="email" viewBox="0 0 20 20">
			<path fill-rule="evenodd" clip-rule="evenodd" d="M15.525 3.5C16.892 3.5 18 4.633 18 6.031v8.438C18 15.867 16.892 17 15.525 17H3.975C2.608 17 1.5 15.867 1.5 14.469V6.03C1.5 4.633 2.608 3.5 3.975 3.5h11.55zm.825 2.808l-6.057 5.42a.81.81 0 0 1-1.005.065l-.081-.064-6.057-5.42v8.16c0 .466.37.844.825.844h11.55a.835.835 0 0 0 .825-.844V6.308zm-1.254-1.12H4.402L9.75 9.973l5.346-4.786z"></path>
		</symbol>
	
		<symbol id="file" viewBox="0 0 19 24">
			<path d="M13.316 0h-7.08C4.761 0 3.562 1.262 3.562 2.813v.934h-.89C1.198 3.747 0 5.01 0 6.56v14.627C0 22.738 1.199 24 2.672 24h10.422c1.474 0 2.672-1.262 2.672-2.813v-.937h.446c1.473 0 2.672-1.262 2.672-2.813V5.894L13.316 0zm.49 3.179l2.043 2.162h-1.152c-.49 0-.89-.42-.89-.938V3.18zm.179 18.008c0 .517-.4.938-.89.938H2.671c-.49 0-.89-.42-.89-.938V6.56c0-.517.4-.938.89-.938h.891V17.44c0 1.551 1.199 2.813 2.673 2.813l7.749-.003v.937zm3.117-3.75c0 .517-.4.937-.89.937l-9.977.004c-.49 0-.89-.42-.89-.938V2.813c0-.517.4-.938.89-.938h5.79v2.528c0 1.551 1.199 2.813 2.672 2.813h2.405v10.22z"></path>
		</symbol>
	
		<symbol id="kav" viewBox="0 0 46 40">
			<path d="M11.314 40c-3.474 0-6.253-1.235-8.337-3.704C.992 33.728 0 30.42 0 26.37c0-5.53 1.489-10.518 4.466-14.963C7.543 6.864 12.207 3.062 18.459 0l1.638 2.37C17.12 4.148 14.39 6.667 11.91 9.926c-2.381 3.16-3.572 6.37-3.572 9.63 0 .888.248 1.63.744 2.222.496.494 1.24.74 2.233.74 2.481 0 4.565.89 6.252 2.667 1.787 1.68 2.68 3.753 2.68 6.222 0 2.47-.893 4.544-2.68 6.223C15.88 39.21 13.795 40 11.314 40zm25.754 0c-3.474 0-6.252-1.235-8.337-3.704-1.985-2.568-2.977-5.876-2.977-9.926 0-5.53 1.489-10.518 4.466-14.963C33.297 6.864 37.961 3.062 44.214 0l1.637 2.37c-2.977 1.778-5.706 4.297-8.188 7.556-2.381 3.16-3.572 6.37-3.572 9.63 0 .888.248 1.63.744 2.222.496.494 1.24.74 2.233.74 2.481 0 4.565.89 6.252 2.667 1.787 1.68 2.68 3.753 2.68 6.222 0 2.47-.893 4.544-2.68 6.223-1.687 1.58-3.77 2.37-6.252 2.37z"></path>
		</symbol>
	
		<symbol id="lupa" viewBox="0 0 20 20">
			<path fill-rule="evenodd" clip-rule="evenodd" d="M8.925 1.5a7.425 7.425 0 0 1 5.802 12.06l3.031 3.032a.825.825 0 0 1-1.089 1.235l-.077-.069-3.033-3.031A7.425 7.425 0 1 1 8.925 1.5zm0 1.65a5.775 5.775 0 1 0 0 11.55 5.775 5.775 0 0 0 0-11.55z"></path>
		</symbol>
	
		<symbol id="mark-down" viewBox="0 0 960 40">
			<path stroke="#5D5D5D" stroke-width="2" d="M0 19h894"></path><path d="M948.686 0c3.474 0 6.253 1.235 8.337 3.704C959.008 6.272 960 9.58 960 13.63c0 5.53-1.489 10.518-4.466 14.963-3.077 4.543-7.741 8.345-13.994 11.407l-1.637-2.37c2.977-1.778 5.706-4.297 8.188-7.556 2.381-3.16 3.572-6.37 3.572-9.63 0-.888-.248-1.63-.744-2.222-.496-.494-1.24-.74-2.233-.74-2.481 0-4.565-.89-6.252-2.667-1.787-1.68-2.68-3.753-2.68-6.222 0-2.47.893-4.544 2.68-6.223C944.121.79 946.205 0 948.686 0zm-25.754 0c3.474 0 6.252 1.235 8.337 3.704 1.985 2.568 2.977 5.876 2.977 9.926 0 5.53-1.489 10.518-4.466 14.963-3.077 4.543-7.741 8.345-13.994 11.407l-1.637-2.37c2.977-1.778 5.706-4.297 8.188-7.556 2.381-3.16 3.572-6.37 3.572-9.63 0-.888-.248-1.63-.744-2.222-.496-.494-1.241-.74-2.233-.74-2.481 0-4.565-.89-6.252-2.667-1.787-1.68-2.68-3.753-2.68-6.222 0-2.47.893-4.544 2.68-6.223C918.367.79 920.451 0 922.932 0z"></path>
		</symbol>
	
		<symbol id="mark-up" viewBox="0 0 960 40">
			<path d="M11.314 40c-3.474 0-6.253-1.235-8.337-3.704C.992 33.728 0 30.42 0 26.37c0-5.53 1.489-10.518 4.466-14.963C7.543 6.864 12.207 3.062 18.459 0l1.638 2.37C17.12 4.148 14.39 6.667 11.91 9.926c-2.381 3.16-3.572 6.37-3.572 9.63 0 .888.248 1.63.744 2.222.496.494 1.24.74 2.233.74 2.481 0 4.565.89 6.252 2.667 1.787 1.68 2.68 3.753 2.68 6.222 0 2.47-.893 4.544-2.68 6.223C15.88 39.21 13.795 40 11.314 40zm25.754 0c-3.474 0-6.252-1.235-8.337-3.704-1.985-2.568-2.977-5.876-2.977-9.926 0-5.53 1.489-10.518 4.466-14.963C33.297 6.864 37.961 3.062 44.214 0l1.637 2.37c-2.977 1.778-5.706 4.297-8.188 7.556-2.381 3.16-3.572 6.37-3.572 9.63 0 .888.248 1.63.744 2.222.496.494 1.24.74 2.233.74 2.481 0 4.565.89 6.252 2.667 1.787 1.68 2.68 3.753 2.68 6.222 0 2.47-.893 4.544-2.68 6.223-1.687 1.58-3.77 2.37-6.252 2.37z"></path><path stroke="#5D5D5D" stroke-width="2" d="M66 19h894"></path>
		</symbol>
	
		<symbol id="nav" viewBox="0 0 20 20">
			<path fill-rule="evenodd" clip-rule="evenodd" d="M2.064 8.059c-.752-.251-.752-1.315 0-1.566l14.849-4.95a.825.825 0 0 1 1.043 1.044l-4.95 14.849c-.25.752-1.314.752-1.565 0l-2.344-7.033-7.033-2.344zm2.87-.783l5.076 1.692c.247.082.44.276.522.522l1.692 5.076L15.87 3.631 4.934 7.276z"></path>
		</symbol>
	
		<symbol id="phone" viewBox="0 0 25 25">
			<path fill-rule="evenodd" clip-rule="evenodd" d="M9.666 9.952c.287-.191.459-.513.459-.858V4.969a3.094 3.094 0 0 0-3.094-3.094H2.906c-.57 0-1.031.462-1.031 1.031 0 10.252 9.342 19.594 19.594 19.594.57 0 1.031-.462 1.031-1.031v-4.125a3.094 3.094 0 0 0-3.094-3.094h-4.125c-.345 0-.667.172-.858.46l-1.965 2.947a19.476 19.476 0 0 1-5.457-5.316l-.283-.424 2.948-1.965zm6.167 6.36h3.573c.57 0 1.032.462 1.032 1.032v3.058c-1.998-.139-3.948-.673-5.766-1.52l-.418-.201 1.58-2.369zM3.973 3.938h3.058c.57 0 1.032.462 1.032 1.032v3.573L5.694 10.12c-.964-1.936-1.572-4.032-1.72-6.184z"></path>
		</symbol>
	
		<symbol id="select" viewBox="0 0 20 20">
			<path fill-rule="evenodd" clip-rule="evenodd" d="M7.175 13.857c.456 0 .825.368.825.822 0 .453-.37.821-.825.821h-4.85a.823.823 0 0 1-.825-.821c0-.454.37-.822.825-.822h4.85zm6-4.928c.456 0 .825.367.825.821 0 .454-.37.821-.825.821H2.325A.823.823 0 0 1 1.5 9.75c0-.454.37-.821.825-.821h10.85zm4-4.929c.456 0 .825.368.825.821 0 .454-.37.822-.825.822H2.325A.823.823 0 0 1 1.5 4.82c0-.453.37-.821.825-.821h14.85z"></path>
		</symbol>
	
</svg>
