<svg width="19" height="39" viewBox="0 0 19 39" fill="none" xmlns="http://www.w3.org/2000/svg">
<path d="M17.028 2.264H18.528V0.763998H17.028V2.264ZM17.028 37V38.5H18.528V37H17.028ZM10.996 37H9.496V38.5H10.996V37ZM11.1 10.22L12.5971 10.3136L12.7998 7.07014L10.2 9.02L11.1 10.22ZM9.904 10.948L9.19812 9.62447L9.17564 9.63646L9.15358 9.6492L9.904 10.948ZM5.224 13.652L3.90774 14.3713L4.64439 15.7193L5.97442 14.9508L5.224 13.652ZM2.78 9.18L1.97742 7.91277L0.789293 8.66525L1.46374 9.89935L2.78 9.18ZM13.7 2.264V0.763998H13.265L12.8974 0.996769L13.7 2.264ZM15.528 2.264V37H18.528V2.264H15.528ZM17.028 35.5H10.996V38.5H17.028V35.5ZM12.496 37V12.612H9.496V37H12.496ZM12.496 12.612C12.496 12.1776 12.5279 11.421 12.5971 10.3136L9.60292 10.1264C9.53347 11.2377 9.496 12.0758 9.496 12.612H12.496ZM10.2 9.02C10.012 9.16103 9.69021 9.36202 9.19812 9.62447L10.6099 12.2715C11.1578 11.9793 11.6334 11.695 12 11.42L10.2 9.02ZM9.15358 9.6492L4.47358 12.3532L5.97442 14.9508L10.6544 12.2468L9.15358 9.6492ZM6.54026 12.9326L4.09626 8.46065L1.46374 9.89935L3.90774 14.3713L6.54026 12.9326ZM3.58258 10.4472L14.5026 3.53123L12.8974 0.996769L1.97742 7.91277L3.58258 10.4472ZM13.7 3.764H17.028V0.763998H13.7V3.764Z" fill="#87EB19"/>
</svg>
