<svg width="27" height="39" viewBox="0 0 27 39" fill="none" xmlns="http://www.w3.org/2000/svg">
<path d="M24.556 31.748H26.056V30.248H24.556V31.748ZM24.556 37V38.5H26.056V37H24.556ZM2.612 37H1.112V38.5H2.612V37ZM2.612 34.712L1.40925 33.8157L1.112 34.2146V34.712H2.612ZM14.78 18.384L15.9828 19.2803L15.9918 19.2682L16.0006 19.2559L14.78 18.384ZM17.016 14.796L18.3675 15.4467L18.3721 15.4372L18.3765 15.4277L17.016 14.796ZM16.496 8.816L17.579 7.77814V7.77814L16.496 8.816ZM6.98 11.416L6.06543 12.6049L7.28483 13.5429L8.19169 12.3002L6.98 11.416ZM2.924 8.296L1.67275 7.46873L0.902626 8.63354L2.00943 9.48493L2.924 8.296ZM19.044 3.252L18.3257 4.5689L18.3381 4.57553L19.044 3.252ZM22.632 6.684L21.3296 7.42821L21.3335 7.43501L21.3375 7.44177L22.632 6.684ZM22.892 16.044L24.2587 16.6623L22.892 16.044ZM19.252 21.712L18.0584 20.8035L18.0537 20.8097L18.049 20.816L19.252 21.712ZM13.636 29.252L12.433 28.356L12.427 28.3641L12.4211 28.3722L13.636 29.252ZM11.556 31.8L10.4685 30.7669L7.91009 33.4599L11.6212 33.2986L11.556 31.8ZM23.056 31.748V37H26.056V31.748H23.056ZM24.556 35.5H2.612V38.5H24.556V35.5ZM4.112 37V34.712H1.112V37H4.112ZM3.81475 35.6083L15.9828 19.2803L13.5772 17.4877L1.40925 33.8157L3.81475 35.6083ZM16.0006 19.2559C17.0603 17.7722 17.8624 16.4958 18.3675 15.4467L15.6645 14.1453C15.2683 14.9682 14.5797 16.0838 13.5594 17.5121L16.0006 19.2559ZM18.3765 15.4277C18.898 14.3045 19.192 13.1699 19.192 12.04H16.192C16.192 12.6435 16.0353 13.3462 15.6555 14.1643L18.3765 15.4277ZM19.192 12.04C19.192 10.3956 18.6826 8.92975 17.579 7.77814L15.413 9.85385C15.9041 10.3663 16.192 11.0497 16.192 12.04H19.192ZM17.579 7.77814C16.4496 6.59968 14.956 6.068 13.272 6.068V9.068C14.292 9.068 14.9477 9.36832 15.413 9.85386L17.579 7.77814ZM13.272 6.068C10.3076 6.068 7.8107 7.73297 5.76831 10.5318L8.19169 12.3002C9.8933 9.96836 11.5911 9.068 13.272 9.068V6.068ZM7.89457 10.2271L3.83857 7.10706L2.00943 9.48493L6.06543 12.6049L7.89457 10.2271ZM4.17525 9.12327C6.7142 5.2831 9.88006 3.504 13.74 3.504V0.503998C8.72527 0.503998 4.68046 2.91956 1.67275 7.46873L4.17525 9.12327ZM13.74 3.504C15.5394 3.504 17.0532 3.87472 18.3257 4.56884L19.7623 1.93515C17.9842 0.965277 15.9619 0.503998 13.74 0.503998V3.504ZM18.3381 4.57553C19.6629 5.28206 20.6457 6.23126 21.3296 7.42821L23.9344 5.93979C22.9543 4.22474 21.5451 2.88594 19.7499 1.92847L18.3381 4.57553ZM21.3375 7.44177C22.0278 8.621 22.38 9.93447 22.38 11.416H25.38C25.38 9.43086 24.9002 7.58966 23.9265 5.92623L21.3375 7.44177ZM22.38 11.416C22.38 12.8364 22.0944 14.1679 21.5253 15.4257L24.2587 16.6623C25.007 15.0081 25.38 13.2543 25.38 11.416H22.38ZM21.5253 15.4257C20.9367 16.7269 19.8043 18.5099 18.0584 20.8035L20.4456 22.6205C22.2357 20.2688 23.5299 18.2731 24.2587 16.6623L21.5253 15.4257ZM18.049 20.816L12.433 28.356L14.839 30.148L20.455 22.608L18.049 20.816ZM12.4211 28.3722C11.7213 29.3386 11.0702 30.1335 10.4685 30.7669L12.6435 32.8331C13.3591 32.0798 14.0947 31.1761 14.8509 30.1318L12.4211 28.3722ZM11.6212 33.2986C12.3856 33.2653 13.5039 33.248 14.988 33.248V30.248C13.4908 30.248 12.321 30.2653 11.4908 30.3014L11.6212 33.2986ZM14.988 33.248H24.556V30.248H14.988V33.248Z" fill="#87EB19"/>
</svg>
