<svg width="29" height="40" viewBox="0 0 29 40" fill="none" xmlns="http://www.w3.org/2000/svg">
<path d="M7.448 36.272L6.79655 37.6232L6.81095 37.6301L6.82549 37.6367L7.448 36.272ZM2.352 32.424L1.26837 31.3868L0.309104 32.389L1.23352 33.4235L2.352 32.424ZM5.836 28.784L6.92067 27.7479L5.83709 26.6135L4.75237 27.7468L5.836 28.784ZM18.524 30.76L19.4493 31.9406L19.4591 31.9329L19.4687 31.9251L18.524 30.76ZM18.42 22.856L17.6339 24.1335L17.6459 24.1409L17.658 24.148L18.42 22.856ZM9.06 21.608H7.56V23.108H9.06V21.608ZM9.06 16.616V15.116H7.56V16.616H9.06ZM17.38 15.212L18.3835 16.3269L18.3854 16.3252L17.38 15.212ZM17.484 8.556L16.485 9.6749L16.506 9.69365L16.5276 9.71159L17.484 8.556ZM9.84 8.088L9.18559 6.73828L9.18559 6.73828L9.84 8.088ZM6.564 10.48L5.51159 11.5488L6.57219 12.5931L7.62466 11.5407L6.564 10.48ZM3.184 7.152L2.05924 6.15957L1.11963 7.22446L2.13159 8.22085L3.184 7.152ZM8.228 3.252L7.59941 1.89006L7.59941 1.89006L8.228 3.252ZM19.824 3.2L19.1647 4.54732L19.1763 4.55303L19.1881 4.55853L19.824 3.2ZM23.62 6.424L22.3623 7.24148L22.3671 7.24879L22.3719 7.25605L23.62 6.424ZM23.672 15.42L22.4 14.625L22.3928 14.6366L22.3858 14.6483L23.672 15.42ZM20.136 18.696L19.4411 17.3667L16.354 18.9804L19.6477 20.1143L20.136 18.696ZM24.92 22.128L23.6847 22.979L23.6847 22.979L24.92 22.128ZM24.92 32.684L23.6847 31.833L23.6807 31.839L24.92 32.684ZM20.448 36.324L21.0595 37.6937L21.0696 37.6892L21.0797 37.6845L20.448 36.324ZM13.74 36.124C11.7314 36.124 9.84679 35.7175 8.07051 34.9073L6.82549 37.6367C9.00121 38.6292 11.3113 39.124 13.74 39.124V36.124ZM8.09945 34.9208C6.33786 34.0715 4.79724 32.9092 3.47048 31.4245L1.23352 33.4235C2.81876 35.1975 4.67548 36.6005 6.79655 37.6232L8.09945 34.9208ZM3.43563 33.4612L6.91963 29.8212L4.75237 27.7468L1.26837 31.3868L3.43563 33.4612ZM4.75133 29.8201C7.21264 32.3968 10.1206 33.768 13.428 33.768V30.768C11.0501 30.768 8.8967 29.8166 6.92067 27.7479L4.75133 29.8201ZM13.428 33.768C15.7775 33.768 17.8331 33.2074 19.4493 31.9406L17.5987 29.5794C16.6496 30.3233 15.3078 30.768 13.428 30.768V33.768ZM19.4687 31.9251C21.0882 30.612 21.948 28.8732 21.948 26.808H18.948C18.948 27.9322 18.5251 28.828 17.5793 29.5949L19.4687 31.9251ZM21.948 26.808C21.948 24.5471 21.0768 22.6814 19.182 21.564L17.658 24.148C18.4672 24.6253 18.948 25.3943 18.948 26.808H21.948ZM19.2061 21.5785C17.57 20.5717 15.637 20.108 13.48 20.108V23.108C15.2057 23.108 16.566 23.4763 17.6339 24.1335L19.2061 21.5785ZM13.48 20.108H9.06V23.108H13.48V20.108ZM10.56 21.608V16.616H7.56V21.608H10.56ZM9.06 18.116H12.804V15.116H9.06V18.116ZM12.804 18.116C15.025 18.116 16.9685 17.6004 18.3834 16.3269L16.3766 14.0971C15.7115 14.6956 14.6043 15.116 12.804 15.116V18.116ZM18.3854 16.3252C19.7498 15.0928 20.492 13.5371 20.492 11.728H17.492C17.492 12.6229 17.1596 13.3898 16.3746 14.0988L18.3854 16.3252ZM20.492 11.728C20.492 9.98946 19.7831 8.51164 18.4404 7.40041L16.5276 9.71159C17.1956 10.2644 17.492 10.9012 17.492 11.728H20.492ZM18.483 7.43709C17.1789 6.27272 15.5123 5.756 13.636 5.756V8.756C14.949 8.756 15.8477 9.10594 16.485 9.6749L18.483 7.43709ZM13.636 5.756C12.0435 5.756 10.5516 6.07599 9.18559 6.73828L10.4944 9.43772C11.4164 8.99068 12.4551 8.756 13.636 8.756V5.756ZM9.18559 6.73828C7.86944 7.37641 6.64347 8.27921 5.50334 9.41934L7.62466 11.5407C8.56453 10.6008 9.52256 9.90892 10.4944 9.43772L9.18559 6.73828ZM7.61641 9.41115L4.23641 6.08315L2.13159 8.22085L5.51159 11.5488L7.61641 9.41115ZM4.30876 8.14443C5.75632 6.50386 7.27528 5.34377 8.85659 4.61394L7.59941 1.89006C5.57538 2.82423 3.73168 4.26414 2.05924 6.15957L4.30876 8.14443ZM8.85659 4.61394C10.4402 3.88306 12.2327 3.504 14.26 3.504V0.503998C11.8499 0.503998 9.62118 0.956936 7.59941 1.89006L8.85659 4.61394ZM14.26 3.504C16.145 3.504 17.7688 3.86423 19.1647 4.54732L20.4833 1.85267C18.6205 0.941099 16.535 0.503998 14.26 0.503998V3.504ZM19.1881 4.55853C20.5868 5.21326 21.627 6.11019 22.3623 7.24148L24.8777 5.60652C23.8103 3.96448 22.3199 2.71207 20.4599 1.84146L19.1881 4.55853ZM22.3719 7.25605C23.1013 8.35009 23.472 9.58327 23.472 11H26.472C26.472 9.01939 25.9414 7.2019 24.8681 5.59195L22.3719 7.25605ZM23.472 11C23.472 12.265 23.1252 13.4647 22.4 14.625L24.944 16.215C25.9521 14.602 26.472 12.855 26.472 11H23.472ZM22.3858 14.6483C21.705 15.7828 20.7382 16.6887 19.4411 17.3667L20.8309 20.0253C22.5845 19.1087 23.975 17.8305 24.9582 16.1917L22.3858 14.6483ZM19.6477 20.1143C21.5157 20.7574 22.8232 21.7284 23.6847 22.979L26.1553 21.277C24.8674 19.4076 22.9857 18.0906 20.6243 17.2777L19.6477 20.1143ZM23.6847 22.979C24.5825 24.2821 25.032 25.7346 25.032 27.38H28.032C28.032 25.1428 27.4068 23.0939 26.1553 21.277L23.6847 22.979ZM25.032 27.38C25.032 29.066 24.5793 30.5345 23.6847 31.833L26.1553 33.535C27.4101 31.7135 28.032 29.646 28.032 27.38H25.032ZM23.6807 31.839C22.8159 33.1073 21.552 34.1576 19.8163 34.9635L21.0797 37.6845C23.2267 36.6877 24.9441 35.3114 26.1593 33.529L23.6807 31.839ZM19.8365 34.9543C18.1207 35.7203 16.0995 36.124 13.74 36.124V39.124C16.4419 39.124 18.8927 38.661 21.0595 37.6937L19.8365 34.9543Z" fill="#87EB19"/>
</svg>
