<svg width="30" height="39" viewBox="0 0 30 39" fill="none" xmlns="http://www.w3.org/2000/svg">
<path d="M27.624 25.56H29.124V24.06H27.624V25.56ZM27.624 30.5V32H29.124V30.5H27.624ZM23.724 30.5V29H22.224V30.5H23.724ZM23.724 37V38.5H25.224V37H23.724ZM18.108 37H16.608V38.5H18.108V37ZM18.108 30.5H19.608V29H18.108V30.5ZM1.832 30.5H0.332V32H1.832V30.5ZM1.832 27.328L0.625424 26.4368L0.332 26.8341V27.328H1.832ZM20.344 2.264V0.763998H19.5871L19.1374 1.37283L20.344 2.264ZM23.724 2.264H25.224V0.763998H23.724V2.264ZM23.724 25.56H22.224V27.06H23.724V25.56ZM18.42 12.612L19.9126 12.7613L17.1401 11.8298L18.42 12.612ZM16.236 15.784L15.0647 14.847L15.0436 14.8734L15.0236 14.9007L16.236 15.784ZM10.932 23.064L12.1173 23.9832L12.1311 23.9655L12.1444 23.9473L10.932 23.064ZM8.956 25.612L7.77067 24.6928L5.78656 27.2512L9.02116 27.1106L8.956 25.612ZM18.264 25.56V27.06H19.764V25.56H18.264ZM26.124 25.56V30.5H29.124V25.56H26.124ZM27.624 29H23.724V32H27.624V29ZM22.224 30.5V37H25.224V30.5H22.224ZM23.724 35.5H18.108V38.5H23.724V35.5ZM19.608 37V30.5H16.608V37H19.608ZM18.108 29H1.832V32H18.108V29ZM3.332 30.5V27.328H0.332V30.5H3.332ZM3.03858 28.2192L21.5506 3.15516L19.1374 1.37283L0.625424 26.4368L3.03858 28.2192ZM20.344 3.764H23.724V0.763998H20.344V3.764ZM22.224 2.264V25.56H25.224V2.264H22.224ZM23.724 27.06H27.624V24.06H23.724V27.06ZM19.764 16.928C19.764 15.1093 19.8159 13.7281 19.9126 12.7613L16.9274 12.4627C16.8161 13.5759 16.764 15.072 16.764 16.928H19.764ZM17.1401 11.8298C16.4007 13.0398 15.7085 14.0422 15.0647 14.847L17.4073 16.721C18.1502 15.7925 18.914 14.6802 19.6999 13.3942L17.1401 11.8298ZM15.0236 14.9007L9.71965 22.1807L12.1444 23.9473L17.4484 16.6673L15.0236 14.9007ZM9.74667 22.1448L7.77067 24.6928L10.1413 26.5312L12.1173 23.9832L9.74667 22.1448ZM9.02116 27.1106C9.78502 27.0774 10.9374 27.06 12.492 27.06V24.06C10.9266 24.06 9.72165 24.0773 8.89084 24.1134L9.02116 27.1106ZM12.492 27.06H18.264V24.06H12.492V27.06ZM19.764 25.56V16.928H16.764V25.56H19.764Z" fill="#87EB19"/>
</svg>
