<svg width="28" height="20" viewBox="0 0 28 20" fill="none" xmlns="http://www.w3.org/2000/svg">
<g opacity="0.6" clip-path="url(#clip0)">
<path fill-rule="evenodd" clip-rule="evenodd" d="M8.75199 3.82662L8.68336 3.74713C8.38596 3.44297 7.918 3.41957 7.59436 3.67694L7.51664 3.74713L1.74164 9.65338L1.70748 9.69047L1.66198 9.74771L1.60285 9.84157L1.55876 9.93669L1.52957 10.0256L1.5057 10.1504L1.5 10.25L1.5023 10.3135L1.5167 10.4194L1.54103 10.5134L1.57728 10.6071L1.62045 10.6893L1.68124 10.7777L1.74164 10.8466L7.51664 16.7529C7.83882 17.0824 8.36118 17.0824 8.68336 16.7529C8.98076 16.4487 9.00364 15.9701 8.75199 15.6391L8.68336 15.5596L4.3182 11.0938L27.175 11.0938C27.6306 11.0938 28 10.716 28 10.25C28 9.78401 27.6306 9.40625 27.175 9.40625L4.31655 9.40625L8.68336 4.94037C8.98076 4.63621 9.00364 4.15761 8.75199 3.82662Z" fill="white"/>
</g>
<defs>
<clipPath id="clip0">
<rect width="28" height="20" fill="white"/>
</clipPath>
</defs>
</svg>
