<svg width="29" height="20" viewBox="0 0 29 20" fill="none" xmlns="http://www.w3.org/2000/svg">
<g opacity="0.6">
<path fill-rule="evenodd" clip-rule="evenodd" d="M19.748 3.82662L19.8166 3.74713C20.114 3.44297 20.582 3.41957 20.9056 3.67694L20.9834 3.74713L26.7584 9.65338L26.7925 9.69047L26.838 9.74771L26.8971 9.84157L26.9412 9.93669L26.9704 10.0256L26.9943 10.1504L27 10.25L26.9977 10.3135L26.9833 10.4194L26.959 10.5134L26.9227 10.6071L26.8796 10.6893L26.8188 10.7777L26.7584 10.8466L20.9834 16.7529C20.6612 17.0824 20.1388 17.0824 19.8166 16.7529C19.5192 16.4487 19.4964 15.9701 19.748 15.6391L19.8166 15.5596L24.1818 11.0938L1.325 11.0937C0.869365 11.0937 0.5 10.716 0.5 10.25C0.5 9.78401 0.869365 9.40625 1.325 9.40625L24.1834 9.40625L19.8166 4.94037C19.5192 4.63621 19.4964 4.15761 19.748 3.82662Z" fill="white"/>
</g>
</svg>
