<svg width="40" height="40" viewBox="0 0 40 40" fill="none" xmlns="http://www.w3.org/2000/svg">
<path fill-rule="evenodd" clip-rule="evenodd" d="M21.8229 19.5002L30.5182 10.8047C31.1606 10.1624 31.1606 9.1241 30.5182 8.48176C29.8759 7.83941 28.8377 7.83941 28.1953 8.48176L19.5 17.1772L10.8047 8.48176C10.1623 7.83941 9.12408 7.83941 8.48175 8.48176C7.83942 9.1241 7.83942 10.1624 8.48175 10.8047L17.1771 19.5002L8.48175 28.1957C7.83942 28.838 7.83942 29.8763 8.48175 30.5187C8.8021 30.839 9.22265 31 9.64321 31C10.0638 31 10.4843 30.839 10.8047 30.5187L19.5 21.8232L28.1953 30.5187C28.5157 30.839 28.9362 31 29.3568 31C29.7773 31 30.1979 30.839 30.5182 30.5187C31.1606 29.8763 31.1606 28.838 30.5182 28.1957L21.8229 19.5002Z" fill="#232323"/>
</svg>
