<svg width="20" height="20" viewBox="0 0 20 20" fill="none" xmlns="http://www.w3.org/2000/svg">
<path fill-rule="evenodd" clip-rule="evenodd" d="M15.525 1.5C16.8408 1.5 17.9204 2.53255 17.9958 3.82981L18 3.975V12.225C18 13.5408 16.9675 14.6204 15.6702 14.6958L15.525 14.7H12.6375L10.41 17.67C10.2541 17.8779 10.0099 18 9.75 18C9.52261 18 9.30722 17.9065 9.15247 17.7439L9.09 17.67L6.8625 14.7H3.975C2.65918 14.7 1.57964 13.6675 1.50421 12.3702L1.5 12.225V3.975C1.5 2.65918 2.53255 1.57964 3.82981 1.50421L3.975 1.5H15.525ZM15.525 3.15H3.975C3.55289 3.15 3.20335 3.4694 3.15557 3.87898L3.15 3.975V12.225C3.15 12.6471 3.4694 12.9967 3.87898 13.0444L3.975 13.05H7.275C7.50239 13.05 7.71778 13.1435 7.87253 13.3061L7.935 13.38L9.75 15.7997L11.565 13.38C11.7014 13.1981 11.9055 13.0819 12.1284 13.0557L12.225 13.05H15.525C15.9471 13.05 16.2967 12.7306 16.3444 12.321L16.35 12.225V3.975C16.35 3.55289 16.0306 3.20335 15.621 3.15557L15.525 3.15ZM13.875 8.925C14.3304 8.925 14.7 9.2946 14.7 9.75C14.7 10.1729 14.3813 10.5218 13.9712 10.5694L13.875 10.575H5.625C5.1696 10.575 4.8 10.2054 4.8 9.75C4.8 9.32713 5.11869 8.97824 5.52883 8.93055L5.625 8.925H13.875ZM13.875 5.625C14.3304 5.625 14.7 5.9946 14.7 6.45C14.7 6.87287 14.3813 7.22176 13.9712 7.26945L13.875 7.275H5.625C5.1696 7.275 4.8 6.9054 4.8 6.45C4.8 6.02713 5.11869 5.67824 5.52883 5.63055L5.625 5.625H13.875Z" fill="#87EB19"/>
</svg>
