<svg width="20" height="20" viewBox="0 0 20 20" fill="none" xmlns="http://www.w3.org/2000/svg">
<path fill-rule="evenodd" clip-rule="evenodd" d="M15.525 3.5C16.8919 3.5 18 4.63328 18 6.03125V14.4688C18 15.8667 16.8919 17 15.525 17H3.975C2.6081 17 1.5 15.8667 1.5 14.4688V6.03125C1.5 4.63328 2.6081 3.5 3.975 3.5H15.525ZM16.35 6.308L10.2933 11.7287C10.0081 11.9839 9.59412 12.0052 9.28751 11.7925L9.20673 11.7287L3.15 6.30884V14.4688C3.15 14.9347 3.51937 15.3125 3.975 15.3125H15.525C15.9806 15.3125 16.35 14.9347 16.35 14.4688V6.308ZM15.096 5.1875H4.40235L9.75 9.9726L15.096 5.1875Z" fill="#87EB19"/>
</svg>
