<svg width="19" height="24" viewBox="0 0 19 24" fill="none" xmlns="http://www.w3.org/2000/svg">
<path d="M13.3161 0H6.23531C4.76182 0 3.56303 1.26169 3.56303 2.81255V3.74709H2.67228C1.19878 3.74709 0 5.00897 0 6.56002V21.1871C0 22.7382 1.19878 24 2.67228 24H13.0941C14.5676 24 15.7664 22.7382 15.7664 21.1871V20.2496L16.2117 20.2495C17.6852 20.2495 18.884 18.9878 18.884 17.4369V5.89434L13.3161 0ZM13.8067 3.17897L15.8491 5.34103H14.6974C14.2063 5.34103 13.8067 4.92042 13.8067 4.40339V3.17897ZM13.9849 21.1871C13.9849 21.7041 13.5853 22.1247 13.0941 22.1247H2.67228C2.1811 22.1247 1.78152 21.7041 1.78152 21.1871V6.55997C1.78152 6.04294 2.1811 5.62233 2.67228 5.62233H3.56303V17.4404C3.56303 18.9912 4.76181 20.2529 6.23562 20.2529L13.9849 20.2502V21.1871ZM17.1025 17.4369C17.1025 17.9537 16.7029 18.3742 16.2114 18.3742L6.23531 18.3777C5.74413 18.3777 5.34455 17.9572 5.34455 17.4404V2.81255C5.34455 2.29575 5.74413 1.87528 6.23531 1.87528H12.0252V4.40344C12.0252 5.95448 13.224 7.21636 14.6975 7.21636H17.1025V17.4369H17.1025Z" fill="#87EB19"/>
</svg>
