<svg width="20" height="20" viewBox="0 0 20 20" fill="none" xmlns="http://www.w3.org/2000/svg">
<path fill-rule="evenodd" clip-rule="evenodd" d="M8.925 1.5C13.0257 1.5 16.35 4.82429 16.35 8.925C16.35 10.6779 15.7425 12.289 14.7267 13.5592L17.7584 16.5916C18.0805 16.9138 18.0805 17.4362 17.7584 17.7584C17.461 18.0558 16.993 18.0786 16.6694 17.827L16.5916 17.7584L13.5592 14.7267C12.289 15.7425 10.6779 16.35 8.925 16.35C4.82429 16.35 1.5 13.0257 1.5 8.925C1.5 4.82429 4.82429 1.5 8.925 1.5ZM8.925 3.15C5.73556 3.15 3.15 5.73556 3.15 8.925C3.15 12.1144 5.73556 14.7 8.925 14.7C12.1144 14.7 14.7 12.1144 14.7 8.925C14.7 5.73556 12.1144 3.15 8.925 3.15Z" fill="#333333"/>
</svg>
