<svg width="960" height="40" viewBox="0 0 960 40" fill="none" xmlns="http://www.w3.org/2000/svg">
<path d="M11.3139 40C7.84035 40 5.06149 38.7654 2.97735 36.2963C0.992449 33.7284 0 30.4198 0 26.3704C0 20.8395 1.48867 15.8518 4.46602 11.4074C7.54261 6.86419 12.2071 3.06172 18.4595 0L20.0971 2.37037C17.1197 4.14814 14.3905 6.66666 11.9094 9.92592C9.52751 13.0864 8.33657 16.2963 8.33657 19.5556C8.33657 20.4444 8.58468 21.1852 9.08091 21.7778C9.57713 22.2716 10.3215 22.5185 11.3139 22.5185C13.795 22.5185 15.8792 23.4074 17.5663 25.1852C19.3528 26.8642 20.246 28.9383 20.246 31.4074C20.246 33.8765 19.3528 35.9506 17.5663 37.6296C15.8792 39.2099 13.795 40 11.3139 40ZM37.068 40C33.5944 40 30.8155 38.7654 28.7314 36.2963C26.7465 33.7284 25.754 30.4198 25.754 26.3704C25.754 20.8395 27.2427 15.8518 30.2201 11.4074C33.2967 6.86419 37.9612 3.06172 44.2136 0L45.8511 2.37037C42.8738 4.14814 40.1446 6.66666 37.6634 9.92592C35.2816 13.0864 34.0906 16.2963 34.0906 19.5556C34.0906 20.4444 34.3387 21.1852 34.835 21.7778C35.3312 22.2716 36.0755 22.5185 37.068 22.5185C39.5491 22.5185 41.6332 23.4074 43.3204 25.1852C45.1068 26.8642 46 28.9383 46 31.4074C46 33.8765 45.1068 35.9506 43.3204 37.6296C41.6332 39.2099 39.5491 40 37.068 40Z" fill="#5D5D5D"/>
<line x1="66" y1="19" x2="960" y2="19" stroke="#5D5D5D" stroke-width="2"/>
</svg>
