<svg width="960" height="40" viewBox="0 0 960 40" fill="none" xmlns="http://www.w3.org/2000/svg">
<line x1="8.74228e-08" y1="19" x2="894" y2="19.0001" stroke="#5D5D5D" stroke-width="2"/>
<path d="M948.686 0C952.16 0 954.939 1.23457 957.023 3.7037C959.008 6.27161 960 9.58025 960 13.6296C960 19.1605 958.511 24.1482 955.534 28.5926C952.457 33.1358 947.793 36.9383 941.54 40L939.903 37.6296C942.88 35.8519 945.609 33.3333 948.091 30.0741C950.472 26.9136 951.663 23.7037 951.663 20.4444C951.663 19.5556 951.415 18.8148 950.919 18.2222C950.423 17.7284 949.679 17.4815 948.686 17.4815C946.205 17.4815 944.121 16.5926 942.434 14.8148C940.647 13.1358 939.754 11.0617 939.754 8.59259C939.754 6.12346 940.647 4.04938 942.434 2.37037C944.121 0.790123 946.205 0 948.686 0ZM922.932 0C926.406 0 929.184 1.23457 931.269 3.7037C933.254 6.27161 934.246 9.58025 934.246 13.6296C934.246 19.1605 932.757 24.1482 929.78 28.5926C926.703 33.1358 922.039 36.9383 915.786 40L914.149 37.6296C917.126 35.8519 919.855 33.3333 922.337 30.0741C924.718 26.9136 925.909 23.7037 925.909 20.4444C925.909 19.5556 925.661 18.8148 925.165 18.2222C924.669 17.7284 923.924 17.4815 922.932 17.4815C920.451 17.4815 918.367 16.5926 916.68 14.8148C914.893 13.1358 914 11.0617 914 8.59259C914 6.12346 914.893 4.04938 916.68 2.37037C918.367 0.790123 920.451 0 922.932 0Z" fill="#5D5D5D"/>
</svg>
