<svg width="25" height="25" viewBox="0 0 25 25" fill="none" xmlns="http://www.w3.org/2000/svg">
<path fill-rule="evenodd" clip-rule="evenodd" d="M9.66578 9.9518C9.95268 9.76054 10.125 9.43855 10.125 9.09375V4.96875C10.125 3.26012 8.73988 1.875 7.03125 1.875H2.90625C2.33671 1.875 1.875 2.33671 1.875 2.90625C1.875 13.158 11.217 22.5 21.4688 22.5C22.0383 22.5 22.5 22.0383 22.5 21.4688V17.3438C22.5 15.6351 21.1149 14.25 19.4062 14.25H15.2812C14.9364 14.25 14.6145 14.4223 14.4232 14.7092L12.4583 17.6565C10.3182 16.2728 8.44329 14.4451 7.00108 12.3411L6.71845 11.9167L9.66578 9.9518ZM15.8332 16.3125H19.4062C19.9758 16.3125 20.4375 16.7742 20.4375 17.3438V20.4017C18.4397 20.2635 16.49 19.7292 14.6715 18.8819L14.2542 18.6809L15.8332 16.3125ZM3.97326 3.9375H7.03125C7.60079 3.9375 8.0625 4.39921 8.0625 4.96875V8.54184L5.69411 10.1208C4.73035 8.18465 4.12213 6.08896 3.97326 3.9375Z" fill="#87EB19"/>
</svg>
