<svg width="20" height="20" viewBox="0 0 20 20" fill="none" xmlns="http://www.w3.org/2000/svg">
<path fill-rule="evenodd" clip-rule="evenodd" d="M7.175 13.8571C7.63064 13.8571 8 14.2249 8 14.6786C8 15.1322 7.63064 15.5 7.175 15.5H2.325C1.86937 15.5 1.5 15.1322 1.5 14.6786C1.5 14.2249 1.86937 13.8571 2.325 13.8571H7.175ZM13.175 8.92857C13.6306 8.92857 14 9.29634 14 9.75C14 10.2037 13.6306 10.5714 13.175 10.5714H2.325C1.86937 10.5714 1.5 10.2037 1.5 9.75C1.5 9.29634 1.86937 8.92857 2.325 8.92857H13.175ZM17.175 4C17.6306 4 18 4.36777 18 4.82143C18 5.27509 17.6306 5.64286 17.175 5.64286H2.325C1.86937 5.64286 1.5 5.27509 1.5 4.82143C1.5 4.36777 1.86937 4 2.325 4H17.175Z" fill="#87EB19"/>
</svg>
